# xmcd CD database file
#
# Track frame offsets:
#	150
#	15109
#	29266
#	45226
#	59679
#	78346
#	92371
#	116190
#	127055
#	144657
#	161671
#	181746
#	199665
#	211487
#
# Disc length: 3074 seconds
#
# Revision: 1
# Processed by: cddbd v1.5.2PL0 Copyright (c) Steve Scherf et al.
# Submitted via: CDex 1.51
#
DISCID=b60c000e
DTITLE=Frank Sinatra - Duets II
DYEAR=1994
DGENRE=Jazz
TTITLE0=Gladys Knight and Stevie Wonder - For Once In My Life
TTITLE1=Louis Miguel - Come Fly With Me
TTITLE2=Pattie Labelle - Bewitched
TTITLE3=Jon Secado - The Best is Yet to Come
TTITLE4=Linda Ronstadt - Moonlight in Vermont
TTITLE5=Antonio Carlos Jobim - Fly Me to the Moon
TTITLE6=Chrissie Hynde - Luck Be a Lady
TTITLE7=Willie Nelson - A Foggy Day
TTITLE8=Steve Lawrence and Eydie Gorme - Where or When
TTITLE9=Lena Horne - Embraceable You
TTITLE10=Jimmy Buffett - Mack the Knife
TTITLE11=Lorrie Morgan - How Do You Keep the Music Playing? - My Funny Valentine
TTITLE12=Frank Sinatra Jr - My Kind of Town
TTITLE13=Neil Diamond - The House I Live In (That's America To Me)
EXTD=YEAR: 1994
EXTT0=
EXTT1=
EXTT2=
EXTT3=
EXTT4=
EXTT5=
EXTT6=
EXTT7=
EXTT8=
EXTT9=
EXTT10=
EXTT11=
EXTT12=
EXTT13=
PLAYORDER=
